<?xml version="1.0" encoding="UTF-8"?>
<svg viewBox="0 0 207 210" xmlns="http://www.w3.org/2000/svg" width="100%" height="100%">
<g id="f4">
    <rect width="207" height="210" fill="#fff6d5"/>
    <path d="m192.13 93.442a50.39 103.67 60 0 0 -103.88 18.502 50.39 103.67 60 0 0 -67.719 77.754 50.39 103.67 60 0 0 103.88 -18.502 50.39 103.67 60 0 0 67.719 -77.754z" fill="#159f4a"/>
    <circle cx="154.99" cy="115.33" r="18.195" fill="#8bcf47"/>
    <circle cx="113.94" cy="135.22" r="21.157" fill="#8bcf47"/>
    <circle cx="69.512" cy="160.19" r="18.195" fill="#8bcf47"/>
    <path d="m164.82 106.26c-6.865-6.5665-15.819-2.9848-18.506-1.1939" fill="none" stroke="#deedc3" stroke-linecap="round" stroke-width="4"/>
    <path d="m124.22 122.97c-6.865-6.5665-20.595-2.3878-23.58 2.3878" fill="none" stroke="#deedc3" stroke-linecap="round" stroke-width="4"/>
    <path d="m121.01 20.537a50.39 103.67 30 0 0 -80.715 67.965 50.39 103.67 30 0 0 -19.769 101.2 50.39 103.67 30 0 0 80.715 -67.965 50.39 103.67 30 0 0 19.769 -101.2z" fill="#7dbc54"/>
    <path d="m112.22 31.446s-26.794 12.112-40.741 27.895-23.857 36.337-23.857 36.337 20.554-26.06 28.996-35.235 35.602-28.996 35.602-28.996z" fill="#deedc3"/>
</g>
</svg>