<?xml version="1.0" encoding="UTF-8"?>
<svg viewBox="0 0 175 225" xmlns="http://www.w3.org/2000/svg" width="100%" height="100%">
<g id="f2">
    <rect width="175" height="225" fill="#fff6d5"/>
    <ellipse transform="rotate(-11.625)" cx="71.497" cy="175.97" rx="37.3" ry="50.311" fill="#5f109c" />
    <path d="m77.592 157.93a26.24 13.02 47.79 0 0 9.5 25.7 26.24 13.02 47.79 0 0 25.3 12.1 30.73 15.84 47.79 0 1 -22.9 -14.4 30.73 15.84 47.79 0 1 -11.9 -23.4z" fill="#fff"/>
    <ellipse transform="rotate(35.558)" cx="140.59" cy="98.892" rx="37.299" ry="50.308" fill="#5f109c" stroke="#9e9e9e" stroke-linecap="round" stroke-width=".49998"/>
    <path d="m37.892 141.83a13.02 26.24 4.968 0 0 -12.4 24.4 13.02 26.24 4.968 0 0 8.3 26.7 15.84 30.73 4.968 0 1 -5 -26.5 15.84 30.73 4.968 0 1 9.1 -24.6z" fill="#fff" />
    <path d="m128.7 18.931a41.72 58.99 30 0 0 -49.4 34.26 41.72 58.99 30 0 0 -5.1 59.81 41.72 58.99 30 0 0 49.5 -34.21 41.72 58.99 30 0 0 5 -59.86z" fill="#7fba54" />
    <path d="m37.692 51.291a37.8 26.73 60 0 0 3.1 38.4 37.8 26.73 60 0 0 31.5 22.01 37.8 26.73 60 0 0 -3 -38.44 37.8 26.73 60 0 0 -31.6 -21.97z" fill="#7fba54"/>
</g>
</svg>