<?xml version="1.0" encoding="UTF-8"?>
<svg viewBox="0 0 175 274" xmlns="http://www.w3.org/2000/svg" width="100%" height="100%">
<g id="f3">
    <rect width="175.5" height="274.6" fill="#fff6d5"/>
    <path d="m84.499 25.028c-23.1 0-42.6 65.5-42.6 118.4 0 52.9 17.1 100.2 42.6 118.4 25.4-18.2 42.3-65.5 42.3-118.4 0-52.9-19.3-118.4-42.3-118.4z" fill="#fcdb56"/>
    <g fill="#ffb83f">
    <circle cx="83" cy="50" r="7"/>
    <circle cx="83" cy="28" r="7"/>
    <circle cx="83" cy="72" r="8"/>
    <circle cx="83" cy="98" r="10"/>
    <circle cx="83" cy="128" r="12"/>
    <circle cx="83" cy="162" r="14"/>
    <circle cx="83" cy="199" r="15"/>
    <circle cx="83" cy="231" r="10"/>
    <circle cx="63" cy="54" r="7"/>
    <circle cx="107" cy="54" r="7"/>
    <circle cx="64" cy="77" r="8"/>
    <circle cx="104" cy="77" r="8"/>
    <circle cx="60" cy="107" r="10"/>
    <circle cx="107" cy="107" r="10"/>
    <circle cx="50" cy="88" r="8"/>
    <circle cx="119" cy="87" r="8"/>
    <circle cx="43" cy="128" r="10"/>
    <circle cx="125" cy="127" r="10"/>
    <circle cx="60" cy="147" r="10"/>
    <circle cx="107" cy="147" r="10"/>
    <circle cx="60" cy="178" r="10"/>
    <circle cx="107" cy="178" r="10"/>
    <circle cx="43" cy="163" r="10"/>
    <circle cx="124" cy="163" r="10"/>
    </g>
    <path d="m37.399 96.528a91.23 53.66 75 0 0 -11.75 91.8 91.23 53.66 75 0 0 56.15 73.3 91.23 53.66 75 0 0 11.7 -91.6 91.23 53.66 75 0 0 -56.1 -73.5z" fill="#7fbf51"/>
    <path d="m128 96.528a53.66 91.23 15 0 0 -56.2 73.6 53.66 91.23 15 0 0 12 91.7 53.66 91.23 15 0 0 56 -73.6 53.66 91.23 15 0 0 -11.8 -91.7z" fill="#7fbf51"/>
    <path d="m34.929 120.23a90.52 71.81 84.17 0 0 -4.64 65.2 90.52 71.81 84.17 0 0 40.01 59.6 106.6 71.98 80.46 0 1 -33.7 -63.6 106.6 71.98 80.46 0 1 -1.67 -61.2z" fill="#fff"/>
</g>
</svg>