<?xml version="1.0" encoding="UTF-8"?>
<svg viewBox="0 0 180 152" xmlns="http://www.w3.org/2000/svg" width="100%" height="100%">
<g id="pilz">
    <rect width="180" height="152" fill="#fff6d5"/>
    <ellipse cx="93" cy="96" rx="37" ry="45.449" fill="#eab689"/>
    <path d="m66.032 72.576s-5.2567 17.922-2.7016 31.658c2.5551 13.736 14.857 28.294 14.857 28.294s-9.3619-18.251-11.091-29.289c-1.7287-11.038-1.0649-30.663-1.0649-30.663z" fill="#e5d1c6"/>
    <path d="m92.877 18.709a66.024 58.97 0 0 0 -66.023 58.971 66.024 58.97 0 0 0 0.12305 3.1035h131.75a66.024 58.97 0 0 0 0.1739 -3.1035 66.024 58.97 0 0 0 -66.025 -58.971z" fill="#a00"/>
    <path d="m76.354 25.442s-17.578 6.3122-27.172 16.47-14.108 28.675-14.108 28.675 9.2308-18.318 17.131-26.218c7.9003-7.9003 24.148-18.927 24.148-18.927z" fill="#e5d1c6"/>
    <circle cx="68" cy="46" r="3" fill="#e5d1c6"/>
    <circle cx="75" cy="65" r="2" fill="#e5d1c6"/>
    <circle cx="53" cy="62" r="2" fill="#e5d1c6"/>
    <circle cx="98" cy="47" r="3" fill="#e5d1c6"/>
    <circle cx="95" cy="31" r="3" fill="#e5d1c6"/>
    <ellipse cx="126" cy="63.471" rx="2.8521" ry="2.9022" fill="#e5d1c6"/>
</g>
</svg>